<svg height="512" viewBox="0 0 60 60" width="512" xmlns="http://www.w3.org/2000/svg"><g id="Page-1" fill="none" fill-rule="evenodd"><g id="056---Listen-To-Podcast" fill="rgb(0,0,0)" fill-rule="nonzero" transform="translate(0 -1)"><path id="Shape" d="m57 28h-1v-1c-.0039153-.7184539-.3928944-1.3796038-1.019-1.732-.3826276-13.5214355-11.4541518-24.28409124-24.981-24.28409124s-24.59837235 10.76265574-24.981 24.28409124c-.62610562.3523962-1.01508469 1.0135461-1.019 1.732v1h-1c-1.65685425 0-3 1.3431458-3 3v12c0 1.6568542 1.34314575 3 3 3h1v1c0 1.1045695.8954305 2 2 2h5c1.6568542 0 3-1.3431458 3-3v-18c.0002274-1.6375228-1.3127046-2.972708-2.95-3 .5183494-10.0878584 8.8488331-18.0012829 18.95-18.0012829s18.4316506 7.9134245 18.95 18.0012829c-1.6372954.027292-2.9502274 1.3624772-2.95 3v18c0 1.6568542 1.3431458 3 3 3h5c1.1045695 0 2-.8954305 2-2v-1h1c1.6568542 0 3-1.3431458 3-3v-12c0-1.6568542-1.3431458-3-3-3zm-54 16c-.55228475 0-1-.4477153-1-1v-12c0-.5522847.44771525-1 1-1h1v14zm9-16v18c0 .5522847-.4477153 1-1 1h-5v-20h5c.5522847 0 1 .4477153 1 1zm18-23c-11.1970655.01855058-20.41176015 8.815815-20.949 20h-2.026c.57266871-12.2723605 10.6892855-21.92791092 22.975-21.92791092s22.4023313 9.65555042 22.975 21.92791092h-2.026c-.5372398-11.184185-9.7519345-19.98144942-20.949-20zm24 42h-5c-.5522847 0-1-.4477153-1-1v-18c0-.5522847.4477153-1 1-1h5zm4-4c0 .5522847-.4477153 1-1 1h-1v-14h1c.5522847 0 1 .4477153 1 1z"/><path id="Shape" d="m43.051 18.13c.3877257-.0005328.7401992-.2251438.9044559-.5763578.1642568-.351214.1106892-.7657235-.1374559-1.0636422-3.4111554-4.1112588-8.4758628-6.49005774-13.818-6.49005774s-10.4068446 2.37879894-13.818 6.49005774c-.3534622.4244308-.2959308 1.0550377.1285 1.4085.4244308.3534622 1.0550378.2959308 1.4085-.1285 3.0311691-3.6548767 7.5327257-5.7697624 12.281-5.7697624s9.2498309 2.1148857 12.281 5.7697624c.1903565.2285401.4725678.360483.77.36z"/><path id="Shape" d="m40.9 20.863c.4366157-.3362468.518904-.9623535.184-1.4-2.6455582-3.4429829-6.7409833-5.4609187-11.083-5.4609187s-8.4374418 2.0179358-11.083 5.4609187c-.2944347.4377843-.1981146 1.028997.2200528 1.3506845.4181673.3216876 1.0143099.2631721 1.3619472-.1336845 2.2667739-2.9505979 5.7762082-4.6800034 9.497-4.6800034s7.2302261 1.7294055 9.497 4.6800034c.3365496.4362918.9626148.5181275 1.4.183z"/><path id="Shape" d="m40 42v-14c0-5.5228475-4.4771525-10-10-10s-10 4.4771525-10 10v14c.0059234 4.3651452 2.8376423 8.223969 7 9.539v3.461h-4c-1.6568542 0-3 1.3431458-3 3v2c0 .5522847.4477153 1 1 1h18c.5522847 0 1-.4477153 1-1v-2c0-1.6568542-1.3431458-3-3-3h-4v-3.461c4.1623577-1.315031 6.9940766-5.1738548 7-9.539zm-10-22c4.4162219.0049599 7.9950401 3.5837781 8 8h-5c-.5522847 0-1 .4477153-1 1s.4477153 1 1 1h5v2h-5c-.5522847 0-.9999999.4477153-.9999999 1s.4477152 1 .9999999 1h5v2h-5c-.5522847 0-1 .4477153-1 1s.4477153 1 1 1h5v2h-16v-2h5c.5522847 0 1-.4477153 1-1s-.4477153-1-1-1h-5v-2h5c.5522847 0 1-.4477153 1-1s-.4477153-1-1-1h-5v-2h5c.5522847 0 1-.4477153 1-1s-.4477153-1-1-1h-5c.0049599-4.4162219 3.5837781-7.9950401 8-8zm-8 22h16c0 4.418278-3.581722 8-8 8s-8-3.581722-8-8zm16 16v1h-16v-1c0-.5522847.4477153-1 1-1h14c.5522847 0 1 .4477153 1 1zm-7-3h-2v-3.051c.6649325.0680029 1.3350675.0680029 2 0z"/></g></g></svg>